<svg width="50" height="51" viewBox="0 0 50 51" fill="none" xmlns="http://www.w3.org/2000/svg">
<path d="M14.5275 4.7747C14.1648 4.78249 13.8104 4.88552 13.4996 5.07339C13.1888 5.26126 12.9324 5.52754 12.7559 5.8457L10.1102 10.704L5.25194 13.3497C4.92464 13.5293 4.65154 13.7941 4.46129 14.1162C4.27104 14.4383 4.17065 14.8058 4.17065 15.1802C4.17065 15.5547 4.27104 15.9224 4.46129 16.2445C4.65154 16.5666 4.92464 16.8314 5.25194 17.0111L10.1102 19.6567L12.7559 24.515C12.9338 24.847 13.1979 25.1242 13.5202 25.3176C13.8426 25.511 14.2111 25.6132 14.5866 25.6132C14.9621 25.6132 15.3306 25.511 15.6529 25.3176C15.9753 25.1242 16.2394 24.847 16.4173 24.515L19.0787 19.6567L23.9134 17.0111C24.2407 16.8314 24.5138 16.5666 24.704 16.2445C24.8943 15.9224 24.9946 15.5547 24.9946 15.1802C24.9946 14.8058 24.8943 14.4383 24.704 14.1162C24.5138 13.7941 24.2407 13.5293 23.9134 13.3497L19.0787 10.704L16.4173 5.8457C16.2322 5.50834 15.9576 5.22894 15.6241 5.03855C15.2906 4.84815 14.911 4.75399 14.5275 4.76677V4.7747ZM14.5827 11.1841L15.7086 13.2314C15.8999 13.5806 16.1868 13.8676 16.5354 14.0583L18.5826 15.1764L16.5354 16.3024C16.1868 16.4931 15.8999 16.7799 15.7086 17.129L14.5827 19.1764L13.4803 17.129C13.289 16.7799 13.0021 16.4931 12.6535 16.3024L10.6063 15.1764L12.6535 14.0583C13.0032 13.8655 13.2902 13.5756 13.4803 13.2235L14.5827 11.1841ZM35.3543 25.5858C34.9885 25.5967 34.632 25.7043 34.3209 25.8979C34.0098 26.0915 33.7551 26.3642 33.5826 26.6882L30.937 31.5228L26.0866 34.1843C25.7593 34.364 25.4862 34.6287 25.2959 34.9508C25.1057 35.2729 25.0053 35.6404 25.0053 36.0148C25.0053 36.3893 25.1057 36.757 25.2959 37.0791C25.4862 37.4012 25.7593 37.666 26.0866 37.8457L30.937 40.4913L33.5826 45.3417C33.7605 45.6737 34.0247 45.9509 34.347 46.1443C34.6693 46.3376 35.0378 46.4398 35.4134 46.4398C35.7889 46.4398 36.1574 46.3376 36.4797 46.1443C36.802 45.9509 37.0662 45.6737 37.2441 45.3417L39.8897 40.4913L44.748 37.8457C45.0753 37.666 45.3484 37.4012 45.5386 37.0791C45.7289 36.757 45.8293 36.3893 45.8293 36.0148C45.8293 35.6404 45.7289 35.2729 45.5386 34.9508C45.3484 34.6287 45.0753 34.364 44.748 34.1843L39.8897 31.5228L37.2441 26.6803C37.0611 26.34 36.7874 26.0575 36.4537 25.8643C36.12 25.671 35.7394 25.5745 35.3543 25.5858ZM35.4173 32.011L36.5354 34.0581C36.7276 34.4113 37.0175 34.7013 37.3701 34.8929L39.4173 36.011L37.3701 37.1132C37.0175 37.3048 36.7276 37.5948 36.5354 37.948L35.4173 39.9954L34.2913 37.948C34.1 37.5989 33.8131 37.3119 33.4645 37.1212L31.4173 36.0189L33.4645 34.8929C33.8142 34.7001 34.1012 34.4102 34.2913 34.0581L35.4173 32.011Z" fill="url(#paint0_linear_2556_2248)"/>
<defs>
<linearGradient id="paint0_linear_2556_2248" x1="3.90668" y1="25.6015" x2="46.0942" y2="25.6015" gradientUnits="userSpaceOnUse">
<stop stop-color="#448FD9"/>
<stop offset="0.381" stop-color="#A270C0"/>
<stop offset="0.671" stop-color="#D76573"/>
<stop offset="1" stop-color="#F0944C"/>
</linearGradient>
</defs>
</svg>
